<svg width="400" height="400" viewBox="0 0 400 400" fill="none" xmlns="http://www.w3.org/2000/svg">
  <rect width="400" height="400" rx="200" fill="#F5F5F5"/>
  <path d="M200 100C144.772 100 100 144.772 100 200C100 255.228 144.772 300 200 300C255.228 300 300 255.228 300 200C300 144.772 255.228 100 200 100ZM200 280C155.817 280 120 244.183 120 200C120 155.817 155.817 120 200 120C244.183 120 280 155.817 280 200C280 244.183 244.183 280 200 280Z" fill="#FF6B6B"/>
  <path d="M200 140C166.863 140 140 166.863 140 200C140 233.137 166.863 260 200 260C233.137 260 260 233.137 260 200C260 166.863 233.137 140 200 140ZM200 240C177.909 240 160 222.091 160 200C160 177.909 177.909 160 200 160C222.091 160 240 177.909 240 200C240 222.091 222.091 240 200 240Z" fill="#FF6B6B"/>
</svg> 