<svg width="400" height="400" viewBox="0 0 400 400" fill="none" xmlns="http://www.w3.org/2000/svg">
  <rect width="400" height="400" rx="200" fill="#E84142"/>
  <path d="M278.6 249.3L230.2 166.8C226.8 161.1 221 157.7 214.6 157.7C208.2 157.7 202.4 161.1 199 166.8L184.2 192.3L163.8 156.8C160.4 151.1 154.6 147.7 148.2 147.7C141.8 147.7 136 151.1 132.6 156.8L84.2 239.3C80.8 245 80.8 251.8 84.2 257.5C87.6 263.2 93.4 266.6 99.8 266.6H263C269.4 266.6 275.2 263.2 278.6 257.5C282 251.8 282 245 278.6 239.3ZM214.6 230.9L199.8 205.4L184.2 230.9H214.6Z" fill="white"/>
</svg> 